<svg width="182" height="32" viewBox="0 0 182 32" fill="none" xmlns="http://www.w3.org/2000/svg">
<path d="M0.859375 0.0285449C5.94924 0.0351676 11.0411 -0.0411366 16.1285 0.0753352C20.0502 0.165172 23.1228 2.82574 23.7842 6.45983C24.5329 10.5736 22.3959 14.0862 19.0991 15.0288C19.0154 15.0527 18.9472 15.1303 18.8346 15.2087C21.977 16.1073 23.8527 18.1847 24.3808 21.2972C25.2517 26.4326 22.4159 30.6524 17.0581 31.2494C15.8698 31.3816 14.6632 31.3783 13.4648 31.3845C9.26316 31.4068 5.0612 31.4061 0.859519 31.4141L0.859375 0.0285449ZM7.62602 25.4221C7.71337 25.4521 7.80058 25.5081 7.88749 25.5081C9.99655 25.5115 12.1093 25.5862 14.2138 25.4866C16.3915 25.3834 17.6864 24.0466 17.7441 22.0767C17.8022 20.0974 16.6061 18.6698 14.4734 18.4141C13.1252 18.2524 11.7483 18.3266 10.3841 18.3074C9.48024 18.2949 8.5759 18.3051 7.62602 18.3051V25.4221ZM7.5799 12.4651C9.54597 12.4651 11.4127 12.4684 13.2795 12.4622C13.6387 12.4609 14.0061 12.464 14.3555 12.3937C15.6736 12.1294 16.6663 11.4543 17.0115 10.082C17.562 7.89406 16.1659 6.00388 13.8994 5.89172C12.8456 5.83975 11.7875 5.87733 10.7314 5.87632C9.70711 5.87502 8.68257 5.87603 7.62645 5.87603C7.60541 6.10264 7.58163 6.24085 7.58148 6.37906C7.57903 8.36657 7.5799 10.3541 7.5799 12.4651ZM122.225 31.9899C121.429 31.8422 120.625 31.7289 119.839 31.5406C113.685 30.0673 110.55 24.7767 111.087 18.9308C111.538 14.036 114.008 10.4574 118.714 8.80078C125.283 6.48776 132.901 9.61061 134.025 18.3414C134.174 19.4949 134.167 20.6684 134.237 21.9362H117.272C117.665 24.0871 118.751 25.596 120.645 26.3981C123.722 27.7016 126.605 27.0519 129.322 25.3046C129.483 25.2014 129.631 25.0787 129.787 24.9677C129.803 24.9568 129.833 24.9663 129.942 24.9663C130.773 26.1888 131.632 27.4512 132.597 28.8699C131.722 29.4151 130.914 30.0061 130.032 30.4487C128.41 31.2628 126.666 31.6945 124.854 31.8452C124.647 31.8623 124.446 31.9401 124.243 31.9897L122.225 31.9899ZM128.382 17.8048C128.5 14.986 125.811 12.8334 122.406 12.9676C119.575 13.0791 117.057 15.4744 117.36 17.8048H128.382ZM146.585 31.9899C145.606 31.7931 144.611 31.654 143.65 31.3894C139.064 30.1256 135.9 26.2517 135.484 21.5169C135.091 17.0508 136.387 13.2659 139.976 10.4484C145.416 6.17894 156.105 7.14743 158.229 17.2491C158.381 17.9728 158.47 18.7159 158.516 19.4544C158.565 20.2386 158.527 21.0286 158.527 21.9357H141.673C141.819 23.1985 142.31 24.2138 143.125 25.0536C144.989 26.9753 147.315 27.3369 149.829 26.8964C151.431 26.6155 152.909 26.0078 154.24 24.869L156.953 28.8417C156.247 29.3138 155.607 29.8131 154.904 30.1972C153.157 31.152 151.266 31.6559 149.286 31.8409C149.055 31.8623 148.83 31.9388 148.603 31.9896C147.93 31.9899 147.258 31.9899 146.585 31.9899ZM141.713 17.8008H152.746C152.888 15.0685 150.262 12.8983 146.963 12.9627C144.036 13.0195 141.502 15.332 141.713 17.8008ZM35.0205 31.9899C34.2995 31.8425 33.5738 31.7148 32.8583 31.5443C28.4263 30.4893 25.8083 27.1757 25.8044 22.6207C25.8009 18.2547 25.8036 13.8885 25.8036 9.5225V8.74003H31.7944V9.57376C31.7944 13.7001 31.8065 17.8263 31.7889 21.9524C31.7807 23.824 32.3539 25.409 34.1295 26.2235C36.0539 27.1061 38.0246 27.0739 39.8048 25.8074C41.1089 24.8801 41.4774 23.4605 41.4802 21.9353C41.4881 17.833 41.483 13.7307 41.483 9.62861V8.72649H47.4086L47.4089 9.53517C47.4089 13.8534 47.4109 18.1715 47.4082 22.4897C47.4052 27.7004 44.1581 31.2823 38.9544 31.8284C38.6975 31.8554 38.446 31.9345 38.1919 31.9893C37.1346 31.9899 36.0775 31.9899 35.0205 31.9899ZM91.5866 31.342V0.0497084H113.377V3.08517C113.377 3.75694 113.332 4.43259 113.39 5.09946C113.447 5.76345 113.181 5.8923 112.569 5.88884C108.269 5.86437 103.969 5.87589 99.6697 5.87589H98.3098V12.4651H99.1213C102.364 12.4651 105.607 12.4837 108.85 12.4498C109.505 12.4431 109.658 12.6511 109.643 13.2695C109.603 14.9182 109.63 16.5685 109.63 18.2999H98.2609V31.342H91.5866ZM160.045 31.3298V30.5066C160.045 23.5036 160.045 16.501 160.045 9.49803C160.045 8.57878 160.046 8.57072 160.996 8.5795C164.284 8.60973 167.585 8.46979 170.856 8.72275C175.517 9.08296 179.165 11.1796 180.891 15.7748C182.646 20.4444 181.309 25.7735 177.743 28.6931C175.642 30.4131 173.17 31.2601 170.507 31.356C167.126 31.4782 163.737 31.3946 160.352 31.397C160.283 31.3972 160.215 31.3681 160.045 31.3298ZM165.758 26.5271C166.906 26.5271 167.982 26.5274 169.057 26.5271C172.925 26.5258 175.361 24.3482 175.795 20.5035C176.106 17.743 174.611 14.9974 172.23 14.0226C170.133 13.1642 167.942 13.6206 165.759 13.4992C165.758 17.883 165.758 22.1451 165.758 26.5271ZM59.4854 13.8514H49.3352V8.71656H67.6851C67.6851 9.68533 67.6364 10.6589 67.6993 11.6255C67.7573 12.5165 67.4859 13.2048 66.9227 13.9044C63.8708 17.6977 60.8671 21.5292 57.8477 25.3483C57.6857 25.5531 57.5316 25.7642 57.2792 26.097H67.8069V31.3305H49.2796C49.2796 29.901 49.2585 28.4721 49.2995 27.0448C49.3065 26.7998 49.553 26.5444 49.7267 26.3237C52.8244 22.3831 55.9283 18.4475 59.029 14.5092C59.1581 14.3449 59.2682 14.1655 59.4854 13.8514ZM69.4466 13.8572C69.4466 12.2368 69.4452 10.7514 69.4488 9.26595C69.4491 9.10211 69.4762 8.93827 69.4955 8.72577H87.7886C87.7886 10.1063 87.8037 11.4647 87.7726 12.822C87.7678 13.0266 87.5657 13.2421 87.4211 13.4257C84.2712 17.4182 81.1163 21.4068 77.9641 25.3975C77.8084 25.5946 77.6695 25.8051 77.4271 26.1423H78.3454C81.3229 26.1423 84.3007 26.1548 87.2784 26.1315C87.8316 26.1273 88.0382 26.263 88.0221 26.8519C87.9816 28.3332 88.0087 29.8165 88.0087 31.3436H69.4645C69.4645 29.8643 69.4527 28.4095 69.4795 26.9555C69.4826 26.7733 69.6742 26.5829 69.8047 26.4171C72.8293 22.5702 75.8579 18.7265 78.8855 14.8816C79.1167 14.5878 79.343 14.2901 79.6774 13.857L69.4466 13.8572Z" fill="#0A112F"/>
</svg>
