<svg width="24" height="24" viewBox="0 0 24 24" fill="none" xmlns="http://www.w3.org/2000/svg">
<circle cx="12" cy="12" r="10.5" fill="#93BAFB"/>
<circle cx="12" cy="12" r="7.5" fill="#CCE1FF"/>
<g clip-path="url(#clip0_826_2983)">
<path d="M14.3757 13.2895C14.3757 11.9477 13.43 11.5629 12.4069 11.3464L11.8647 11.2365C11.0628 11.0789 11.0009 10.8463 11.0009 10.535C11.0009 10.131 11.365 9.8895 11.9749 9.8895C12.6972 9.8895 12.8822 10.2523 12.959 10.5248L12.9663 10.5475C13.0572 10.7851 13.2682 10.9269 13.5316 10.9269C13.5998 10.9269 13.6611 10.9165 13.707 10.9072C13.9896 10.851 14.1865 10.626 14.1865 10.3595C14.1865 10.2934 14.1746 10.2278 14.1505 10.1641C14.0057 9.69839 13.5987 8.96531 12.471 8.79797V7.99922C12.471 7.33392 11.429 7.33392 11.429 7.99922V8.80275C10.2177 8.99231 9.7716 9.81637 9.7716 10.5347C9.7716 11.8417 10.6817 12.206 11.5708 12.3894L12.1573 12.514C12.9926 12.6839 13.1398 12.9017 13.1398 13.2963C13.1398 13.7785 12.7322 14.0659 12.0487 14.0659C11.1615 14.0659 10.9807 13.6664 10.8598 13.218C10.789 12.9697 10.5647 12.8099 10.2881 12.8099C10.2278 12.8099 10.1794 12.8179 10.1211 12.8279L10.1035 12.8312C9.81744 12.8992 9.62549 13.1244 9.62549 13.3915C9.62549 13.4422 9.63449 13.4854 9.6418 13.5203L9.6508 13.5602C9.77947 13.9952 10.0635 14.9451 11.4803 15.157V15.993C11.4803 16.3259 11.7422 16.5001 12.0012 16.5001C12.2602 16.5001 12.5224 16.3259 12.5224 15.993V15.1717C13.6474 15.0251 14.3768 14.3064 14.3768 13.2897" fill="#3981F7"/>
</g>
<defs>
<clipPath id="clip0_826_2983">
<rect width="9" height="9" fill="white" transform="translate(7.5 7.5)"/>
</clipPath>
</defs>
</svg>
