<svg width="200" height="40" viewBox="0 0 200 40" fill="none" xmlns="http://www.w3.org/2000/svg">
<g clip-path="url(#clip0_810_1787)">
<path d="M23.1174 7.39609L11.5587 14.774L23.1174 22.1519L11.5587 29.5298L0 22.0904L11.5587 14.7125L0 7.39609L11.5587 0.0181885L23.1174 7.39609ZM11.4972 31.8661L23.0559 24.4882L34.6146 31.8661L23.0559 39.244L11.4972 31.8661ZM23.1174 22.0904L34.6761 14.7125L23.1174 7.39609L34.6146 0.0181885L46.1733 7.39609L34.6146 14.774L46.1733 22.1519L34.6146 29.5298L23.1174 22.0904Z" fill="#0A112F"/>
<path d="M55.2114 7.39609H64.5568C70.5206 7.39609 75.4392 10.8391 75.4392 18.7089V20.3689C75.4392 28.3001 70.828 31.8661 64.7412 31.8661H55.2114V7.39609ZM60.4374 11.8228V27.3779H64.4338C67.8153 27.3779 70.0902 25.1645 70.0902 20.2459V18.9548C70.0902 14.0362 67.6924 11.8228 64.2493 11.8228H60.4374ZM78.2059 12.0688H82.3867L83.063 16.6799C83.8623 13.5443 85.8912 11.8843 89.5801 11.8843H90.8713V17.1718H88.7194C84.4771 17.1718 83.4319 18.6474 83.4319 22.8282V31.9276H78.2674V12.0688H78.2059ZM91.9165 22.3978V21.8445C91.9165 15.2044 96.1587 11.5769 101.938 11.5769C107.84 11.5769 111.96 15.2044 111.96 21.8445V22.3978C111.96 28.915 107.963 32.4195 101.938 32.4195C95.5439 32.358 91.9165 28.915 91.9165 22.3978ZM106.672 22.3363V21.8445C106.672 18.1555 104.828 15.9421 101.877 15.9421C98.9869 15.9421 97.081 17.9711 97.081 21.8445V22.3363C97.081 25.9023 98.9255 27.9312 101.877 27.9312C104.828 27.8697 106.672 25.9023 106.672 22.3363ZM114.665 12.0688H118.969L119.461 15.8192C120.506 13.2984 122.719 11.5769 125.978 11.5769C131.019 11.5769 134.339 15.2044 134.339 21.9059V22.4593C134.339 28.9764 130.65 32.4195 125.978 32.4195C122.842 32.4195 120.69 31.0054 119.645 28.7305V38.7521H114.603L114.665 12.0688ZM129.113 22.3363V21.9059C129.113 17.9711 127.084 16.0036 124.379 16.0036C121.49 16.0036 119.584 18.217 119.584 21.9059V22.2748C119.584 25.7793 121.428 27.9927 124.318 27.9927C127.269 27.9312 129.113 26.0253 129.113 22.3363ZM141.963 28.2386L141.533 31.8661H137.106V5.42865H142.148V15.5733C143.254 12.991 145.468 11.5769 148.603 11.5769C153.337 11.6384 156.842 14.8969 156.842 21.4756V22.0904C156.842 28.669 153.522 32.4195 148.48 32.4195C145.16 32.358 143.008 30.8209 141.963 28.2386ZM151.554 22.0904V21.5985C151.554 17.9711 149.587 15.9421 146.82 15.9421C143.992 15.9421 142.025 18.217 142.025 21.66V22.0904C142.025 25.7793 143.931 27.9312 146.759 27.9312C149.771 27.9312 151.554 26.0253 151.554 22.0904ZM159.055 22.3978V21.8445C159.055 15.2044 163.298 11.5769 169.077 11.5769C174.979 11.5769 179.099 15.2044 179.099 21.8445V22.3978C179.099 28.915 175.041 32.4195 169.077 32.4195C162.683 32.358 159.055 28.915 159.055 22.3978ZM173.873 22.3363V21.8445C173.873 18.1555 172.028 15.9421 169.077 15.9421C166.187 15.9421 164.281 17.9711 164.281 21.8445V22.3363C164.281 25.9023 166.126 27.9312 169.077 27.9312C172.028 27.8697 173.873 25.9023 173.873 22.3363ZM185.862 21.5985L178.914 12.0688H184.878L188.874 18.0326L192.932 12.0688H198.834L191.764 21.5371L199.203 31.8661H193.363L188.813 25.2875L184.386 31.8661H178.299L185.862 21.5985Z" fill="#0A112F"/>
</g>
<defs>
<clipPath id="clip0_810_1787">
<rect width="199.203" height="40" fill="white"/>
</clipPath>
</defs>
</svg>
