<svg width="109" height="45" viewBox="0 0 109 45" fill="none" xmlns="http://www.w3.org/2000/svg">
<path d="M10.76 44.28V39.144C7.592 38.568 5.112 37.32 3.32 35.4C1.56 33.48 0.68 31.16 0.68 28.44H6.92C6.92 29.944 7.592 31.208 8.936 32.232C10.312 33.224 12.12 33.72 14.36 33.72C16.632 33.72 18.312 33.336 19.4 32.568C20.52 31.768 21.08 30.712 21.08 29.4C21.08 27.16 19.24 25.72 15.56 25.08L9.8 24.12C4.2 23.192 1.4 20.152 1.4 15C1.4 12.568 2.216 10.456 3.848 8.664C5.512 6.84 7.816 5.688 10.76 5.208V0.119997H16.76V5.112C20.024 5.592 22.52 6.808 24.248 8.76C25.976 10.712 26.84 13.112 26.84 15.96H20.6C20.6 14.456 20.008 13.208 18.824 12.216C17.64 11.192 15.992 10.68 13.88 10.68C11.8 10.68 10.232 11.08 9.176 11.88C8.152 12.648 7.64 13.688 7.64 15C7.64 16.024 7.976 16.856 8.648 17.496C9.32 18.104 10.504 18.552 12.2 18.84L17.48 19.8C20.904 20.408 23.4 21.48 24.968 23.016C26.536 24.52 27.32 26.648 27.32 29.4C27.32 32.12 26.424 34.36 24.632 36.12C22.84 37.88 20.216 38.952 16.76 39.336V44.28H10.76ZM29.7088 32.28V27L41.7088 5.4H51.3088V26.52H55.1488V32.28H51.3088V39H45.0688V32.28H29.7088ZM36.6688 26.52H45.0688V12.84H44.1088L36.6688 26.28V26.52ZM56.3694 32.28V27L68.3694 5.4H77.9694V26.52H81.8094V32.28H77.9694V39H71.7294V32.28H56.3694ZM63.3294 26.52H71.7294V12.84H70.7694L63.3294 26.28V26.52ZM92.054 20.616C93.142 21.672 94.534 22.2 96.23 22.2C97.926 22.2 99.302 21.672 100.358 20.616C101.446 19.528 101.99 18.136 101.99 16.44C101.99 14.744 101.446 13.368 100.358 12.312C99.302 11.224 97.926 10.68 96.23 10.68C94.534 10.68 93.142 11.224 92.054 12.312C90.998 13.368 90.47 14.744 90.47 16.44C90.47 18.136 90.998 19.528 92.054 20.616ZM89.27 39L96.23 27.96H95.75C92.518 27.96 89.782 26.856 87.542 24.648C85.334 22.408 84.23 19.672 84.23 16.44C84.23 13.176 85.366 10.44 87.638 8.232C89.91 6.024 92.774 4.92 96.23 4.92C99.686 4.92 102.55 6.024 104.822 8.232C107.094 10.44 108.23 13.176 108.23 16.44C108.23 19.352 107.51 21.912 106.07 24.12L96.47 39H89.27Z" fill="white"/>
</svg>
