<svg width="20" height="20" viewBox="0 0 20 20" fill="none" xmlns="http://www.w3.org/2000/svg">
<path d="M14.4501 4.54984C14.2523 4.54984 14.059 4.60849 13.8945 4.71837C13.7301 4.82825 13.6019 4.98443 13.5262 5.16715C13.4505 5.34988 13.4307 5.55095 13.4693 5.74493C13.5079 5.93891 13.6031 6.11709 13.743 6.25694C13.8828 6.3968 14.061 6.49204 14.255 6.53062C14.449 6.56921 14.65 6.5494 14.8328 6.47372C15.0155 6.39803 15.1717 6.26986 15.2816 6.10541C15.3914 5.94096 15.4501 5.74762 15.4501 5.54984C15.4501 5.28462 15.3447 5.03027 15.1572 4.84273C14.9697 4.65519 14.7153 4.54984 14.4501 4.54984ZM18.2834 6.5665C18.2672 5.87509 18.1377 5.19101 17.9001 4.5415C17.6882 3.98578 17.3584 3.48257 16.9334 3.0665C16.5208 2.63936 16.0164 2.31165 15.4584 2.10817C14.8106 1.8633 14.1258 1.73085 13.4334 1.7165C12.5501 1.6665 12.2667 1.6665 10.0001 1.6665C7.73342 1.6665 7.45008 1.6665 6.56675 1.7165C5.87438 1.73085 5.18953 1.8633 4.54175 2.10817C3.98481 2.31371 3.48086 2.64114 3.06675 3.0665C2.6396 3.47915 2.3119 3.98354 2.10841 4.5415C1.86355 5.18929 1.73109 5.87413 1.71675 6.5665C1.66675 7.44984 1.66675 7.73317 1.66675 9.99984C1.66675 12.2665 1.66675 12.5498 1.71675 13.4332C1.73109 14.1255 1.86355 14.8104 2.10841 15.4582C2.3119 16.0161 2.6396 16.5205 3.06675 16.9332C3.48086 17.3585 3.98481 17.686 4.54175 17.8915C5.18953 18.1364 5.87438 18.2688 6.56675 18.2832C7.45008 18.3332 7.73342 18.3332 10.0001 18.3332C12.2667 18.3332 12.5501 18.3332 13.4334 18.2832C14.1258 18.2688 14.8106 18.1364 15.4584 17.8915C16.0164 17.688 16.5208 17.3603 16.9334 16.9332C17.3603 16.5187 17.6904 16.015 17.9001 15.4582C18.1377 14.8087 18.2672 14.1246 18.2834 13.4332C18.2834 12.5498 18.3334 12.2665 18.3334 9.99984C18.3334 7.73317 18.3334 7.44984 18.2834 6.5665ZM16.7834 13.3332C16.7773 13.8621 16.6815 14.3863 16.5001 14.8832C16.367 15.2458 16.1533 15.5735 15.8751 15.8415C15.6048 16.1169 15.2778 16.3302 14.9167 16.4665C14.4198 16.648 13.8957 16.7438 13.3667 16.7498C12.5334 16.7915 12.2251 16.7998 10.0334 16.7998C7.84175 16.7998 7.53341 16.7998 6.70008 16.7498C6.15082 16.7601 5.60391 16.6755 5.08341 16.4998C4.73823 16.3566 4.42621 16.1438 4.16675 15.8748C3.89016 15.6071 3.67912 15.2792 3.55008 14.9165C3.34663 14.4125 3.23378 13.8765 3.21675 13.3332C3.21675 12.4998 3.16675 12.1915 3.16675 9.99984C3.16675 7.80817 3.16675 7.49984 3.21675 6.6665C3.22048 6.12572 3.31921 5.58979 3.50841 5.08317C3.65512 4.73143 3.8803 4.41789 4.16675 4.1665C4.41993 3.87998 4.73282 3.65242 5.08341 3.49984C5.59137 3.31654 6.12675 3.22074 6.66675 3.2165C7.50008 3.2165 7.80841 3.1665 10.0001 3.1665C12.1917 3.1665 12.5001 3.1665 13.3334 3.2165C13.8624 3.22257 14.3865 3.31838 14.8834 3.49984C15.2621 3.64038 15.602 3.86888 15.8751 4.1665C16.1482 4.42249 16.3615 4.73545 16.5001 5.08317C16.6853 5.59062 16.7812 6.12632 16.7834 6.6665C16.8251 7.49984 16.8334 7.80817 16.8334 9.99984C16.8334 12.1915 16.8251 12.4998 16.7834 13.3332ZM10.0001 5.72484C9.15492 5.72648 8.32922 5.97861 7.62729 6.44935C6.92537 6.9201 6.37873 7.58833 6.05644 8.36963C5.73416 9.15093 5.65068 10.0102 5.81658 10.8389C5.98247 11.6677 6.39028 12.4286 6.98848 13.0257C7.58668 13.6227 8.34842 14.029 9.17746 14.1933C10.0065 14.3576 10.8656 14.2724 11.6463 13.9486C12.427 13.6248 13.0941 13.0769 13.5635 12.374C14.0329 11.6712 14.2834 10.845 14.2834 9.99984C14.2845 9.43743 14.1744 8.88034 13.9594 8.36063C13.7445 7.84093 13.4289 7.36885 13.0308 6.97155C12.6327 6.57425 12.16 6.25957 11.6399 6.04561C11.1198 5.83165 10.5625 5.72264 10.0001 5.72484ZM10.0001 12.7748C9.45124 12.7748 8.91472 12.6121 8.45837 12.3072C8.00203 12.0022 7.64635 11.5688 7.43632 11.0618C7.22628 10.5547 7.17133 9.99676 7.2784 9.45846C7.38548 8.92016 7.64977 8.42571 8.03786 8.03762C8.42595 7.64953 8.92041 7.38523 9.45871 7.27816C9.997 7.17108 10.555 7.22604 11.062 7.43607C11.5691 7.6461 12.0025 8.00178 12.3074 8.45813C12.6123 8.91448 12.7751 9.45099 12.7751 9.99984C12.7751 10.3643 12.7033 10.7251 12.5638 11.0618C12.4244 11.3985 12.22 11.7044 11.9623 11.9621C11.7046 12.2197 11.3987 12.4241 11.062 12.5636C10.7253 12.7031 10.3645 12.7748 10.0001 12.7748Z" fill="#000929"/>
</svg>
