<svg width="235" height="64" viewBox="0 0 235 64" fill="none" xmlns="http://www.w3.org/2000/svg">
<path d="M34.9856 16.0446C38.5115 15.8073 42.1052 16.5193 45.2582 18.1127C49.9368 20.4181 53.6661 24.5543 55.3952 29.4363C56.1749 31.6061 56.5818 33.8776 56.5818 36.183V44.6926C56.5818 45.0316 56.5818 45.4045 56.514 45.7436C56.3106 46.5911 55.7003 47.3709 54.8866 47.7439C54.3103 48.0151 53.6661 48.049 53.0898 47.9473C51.8015 47.7099 50.7844 46.4894 50.7844 45.1672C50.7844 42.5228 50.7844 39.8784 50.7844 37.2339C50.8183 36.4881 50.8183 35.6744 50.4114 35.0303C49.7673 33.8098 48.14 33.2334 46.8855 33.7419C45.8007 34.1149 45.0209 35.2337 44.987 36.3864C44.987 39.0647 44.987 41.743 44.987 44.4214C44.987 44.9299 45.0209 45.4384 44.8514 45.9131C44.5802 46.8624 43.8004 47.6082 42.8511 47.8795C41.5967 48.2185 40.1728 47.676 39.5625 46.5233C39.1218 45.8453 39.1557 44.9977 39.1896 44.2179C39.1896 41.5396 39.1896 38.8952 39.1896 36.2169C39.1557 34.8607 38.0369 33.6402 36.7147 33.4707C35.8332 33.3351 34.9178 33.6402 34.2737 34.2505C33.6973 34.7929 33.3922 35.5727 33.3922 36.3525V44.1162C33.3922 44.7604 33.46 45.4385 33.2227 46.0487C32.8497 47.1675 31.7309 47.9812 30.5443 47.9473C29.3238 48.0151 28.1372 47.1675 27.7643 46.0487C27.5609 45.4724 27.5948 44.896 27.5948 44.2857C27.5948 41.6074 27.5948 38.9291 27.5948 36.2508C27.5948 34.9285 26.5438 33.708 25.2555 33.4707C24.0689 33.2334 22.7806 33.8097 22.1703 34.8946C21.933 35.3354 21.7974 35.8439 21.7974 36.3525V45.0655C21.7974 45.9131 21.4245 46.7607 20.7803 47.3031C19.7971 48.1507 18.2037 48.2185 17.1866 47.4387C16.4407 46.9302 16 46.0487 16 45.1333V36.3186C16 32.9961 16.8476 29.6736 18.441 26.724C19.7293 24.3169 21.5262 22.181 23.6621 20.4859C26.815 17.8415 30.8495 16.282 34.9856 16.0446Z" fill="#0A112F"/>
<path d="M114.216 26.2493H109.808C109.978 23.1642 110.622 20.3841 113.436 18.6212C116.25 16.8921 119.335 16.4853 122.556 16.7565C124.285 16.8921 126.014 17.2651 127.607 18.0109C130.421 19.2992 131.811 21.5029 131.811 24.5881C131.811 30.0465 131.811 35.5048 131.811 40.9632C131.811 42.9635 132.218 43.3364 134.218 43.133C134.422 43.0991 134.659 43.0652 134.862 43.0313C134.896 43.133 134.896 43.2347 134.896 43.3025V46.625C133.303 47.1674 131.676 47.337 130.082 46.8962C128.896 46.5572 128.15 45.7096 127.743 44.5908C127.539 44.0145 127.404 43.4042 127.234 42.7601C127.065 42.9635 126.929 43.133 126.76 43.3025C123.268 46.8284 119.132 48.3201 114.249 47.0657C110.791 46.1843 108.418 43.0313 108.316 39.4376C108.283 38.2849 108.384 37.1322 108.656 36.0134C109.3 33.4368 111.13 31.8772 113.436 30.8262C115.063 30.0804 116.826 29.8769 118.589 29.6396C120.657 29.3684 122.691 29.1311 124.759 28.826C126.149 28.6225 126.861 27.8767 127.065 26.4867C127.506 23.6727 126.251 21.8081 123.539 21.13C121.912 20.7232 120.25 20.6554 118.589 20.9605C116.148 21.4012 114.792 22.7912 114.317 25.1984C114.351 25.5374 114.283 25.8764 114.216 26.2493ZM127.2 31.6738C125.166 32.7587 123.2 33.0299 121.2 33.3351C119.538 33.6063 117.843 33.8436 116.216 34.3521C114.08 35.0641 113.097 36.827 113.3 39.2003C113.47 41.1666 114.792 42.7601 116.928 43.0991C120.216 43.6415 123.132 42.7262 125.437 40.2851C126.116 39.5732 126.658 38.5561 126.794 37.6068C127.099 35.7082 127.065 33.7758 127.2 31.6738ZM190.022 37.3695C189.921 37.8441 189.853 38.251 189.751 38.6239C187.853 44.4213 183.988 46.8962 179.309 47.4387C171.206 48.3201 166.562 43.0313 165.375 37.4034C164.426 32.9282 164.561 28.4869 166.528 24.283C168.392 20.3163 171.376 17.7058 175.817 16.926C181.14 15.9768 188.666 18.6212 189.921 26.9274C190.26 29.0633 190.328 31.267 190.531 33.5046H169.918C170.088 36.5558 170.562 39.4037 172.8 41.6074C173.715 42.5227 174.902 42.9635 176.19 43.2008C180.36 43.9467 183.818 41.9464 185.174 37.9119C185.31 37.4712 185.513 37.3356 185.954 37.3695C187.276 37.3695 188.599 37.3695 190.022 37.3695ZM170.088 29.5718H185.513C185.344 27.775 185.039 26.1137 184.191 24.5542C183.378 23.0625 182.191 21.9776 180.564 21.4351C175.241 19.6044 169.749 23.8422 170.088 29.5718ZM201.109 46.4555H196.43V17.3668H200.871V21.4351C201.21 21.0622 201.414 20.8249 201.617 20.5876C204.804 16.9599 208.805 16.0107 213.348 17.1295C216.501 17.9092 218.264 20.1468 218.874 23.2659C219.111 24.5542 219.281 25.8764 219.281 27.1647C219.315 33.4029 219.315 39.641 219.315 45.8791C219.315 46.0486 219.281 46.2181 219.281 46.4216H214.5V45.6418C214.5 39.8105 214.534 33.9792 214.467 28.1479C214.467 26.8596 214.263 25.5374 213.89 24.283C213.28 22.2488 211.653 21.1639 209.517 21.0622C205.618 20.9266 202.533 22.9947 201.583 26.4528C201.244 27.7072 201.143 29.0294 201.143 30.3516C201.109 35.4709 201.109 40.5564 201.109 45.6079V46.4555ZM139.439 17.3668H143.948V29.7074C144.22 29.4362 144.389 29.3006 144.559 29.1311C148.254 25.3679 151.95 21.5707 155.645 17.8075C155.95 17.4685 156.255 17.3329 156.73 17.3329C158.459 17.3668 160.222 17.3329 162.12 17.3329C161.849 17.6041 161.714 17.7736 161.544 17.9431C158.289 21.1978 155.069 24.4864 151.78 27.7072C151.407 28.0801 151.407 28.3174 151.644 28.7243C155.204 34.386 158.73 40.0478 162.256 45.7096C162.392 45.913 162.493 46.1164 162.663 46.4216C162.426 46.4555 162.256 46.4555 162.053 46.4555C160.425 46.4555 158.832 46.4555 157.204 46.4555C156.764 46.4555 156.56 46.286 156.323 45.9469C153.611 41.4039 150.899 36.861 148.186 32.2841C148.051 32.0806 147.949 31.8772 147.779 31.6399C146.525 32.8943 145.305 34.0809 144.084 35.3353C143.915 35.5048 143.881 35.81 143.881 36.0473C143.881 39.2342 143.881 42.421 143.881 45.6079V46.4216C142.999 46.4216 142.118 46.4216 141.27 46.4216C140.66 46.4216 139.812 46.5911 139.473 46.2521C139.168 45.9808 139.338 45.0994 139.338 44.4891V18.1465C139.439 17.977 139.439 17.7058 139.439 17.3668ZM87.3984 17.3329C83.7369 20.9605 80.1771 24.5203 76.5834 28.0801C80.4483 34.2504 84.2115 40.2851 88.0426 46.4555C87.7374 46.4555 87.534 46.4894 87.3306 46.4894C85.7711 46.4894 84.1776 46.4894 82.6181 46.4894C82.1773 46.4894 81.9061 46.3199 81.6688 45.9469C78.9566 41.4039 76.2443 36.861 73.5321 32.2841C73.4304 32.0806 73.2948 31.9111 73.1253 31.6399C72.4472 32.3519 71.837 33.1316 71.0911 33.6741C69.5655 34.8268 69.1247 36.2507 69.2264 38.1493C69.396 40.6242 69.2603 43.133 69.2603 45.6079V46.4216H64.7852V17.3668H69.2603V29.504C69.3621 29.5718 69.4638 29.6396 69.5316 29.7074C69.6672 29.504 69.735 29.2667 69.8706 29.0972C73.5321 25.334 77.2275 21.6046 80.889 17.8075C81.2281 17.4685 81.5332 17.299 82.0417 17.3329C83.5674 17.3668 85.093 17.3329 86.6186 17.3329C86.856 17.3329 87.0594 17.3329 87.3984 17.3329ZM96.3488 22.181C98.6203 18.8585 101.027 16.0785 105.503 16.8921V21.8759C104.316 21.9437 103.129 21.9098 102.011 22.1471C99.2644 22.7234 97.1285 25.2322 96.6878 28.2835C96.62 28.8938 96.5522 29.504 96.5522 30.1143C96.5522 35.3014 96.5522 40.4886 96.5522 45.6757V46.4894H91.9414V17.4346H96.3488C96.3488 18.9602 96.3488 20.4858 96.3488 22.181Z" fill="#0A112F"/>
</svg>
