<svg width="136" height="40" viewBox="0 0 136 40" fill="none" xmlns="http://www.w3.org/2000/svg">
<g clip-path="url(#clip0_810_1804)">
<path d="M57.8737 13.0625C50.438 13.0625 44.405 19.1118 44.405 26.5312C44.405 33.9507 50.4543 39.9999 57.8737 39.9999C65.2931 39.9999 71.3424 33.9507 71.3424 26.5312C71.3424 19.1118 65.3094 13.0625 57.8737 13.0625ZM57.8737 33.6257C53.969 33.6257 50.7901 30.4467 50.7901 26.542C50.7901 22.6374 53.969 19.4584 57.8737 19.4584C61.7784 19.4584 64.9573 22.6374 64.9573 26.542C64.9573 30.4467 61.7784 33.6257 57.8737 33.6257Z" fill="#0A112F"/>
<path d="M102.677 8.39968C104.995 8.39968 106.88 6.52044 106.88 4.19713C106.88 1.87382 104.995 0 102.677 0C100.359 0 98.4749 1.87923 98.4749 4.20255C98.4749 6.52586 100.359 8.39968 102.677 8.39968Z" fill="#0A112F"/>
<path d="M30.3731 13.0734C30.021 13.0463 29.6853 13.03 29.3387 13.03C26.0893 13.03 23.0078 14.3623 20.7982 16.7127C18.5886 14.3731 15.5179 13.03 12.301 13.03C5.85641 13.0354 0.608643 18.267 0.608643 24.7116V39.453H6.90704V24.8903C6.90704 22.215 9.1058 19.7509 11.6945 19.4855C11.8786 19.4692 12.0573 19.4584 12.2252 19.4584C15.1388 19.4584 17.5163 21.8359 17.5326 24.7495V39.4476H23.9718V24.8632C23.9718 22.2041 26.1543 19.74 28.7592 19.4747C28.9433 19.4584 29.122 19.4476 29.2899 19.4476C32.2036 19.4476 34.5973 21.8142 34.6081 24.7116V39.453H41.0473V24.8903C41.0473 21.9388 39.9533 19.0901 37.9821 16.8968C36.0162 14.6872 33.3138 13.3279 30.3731 13.0734Z" fill="#0A112F"/>
<path d="M81.2532 0.628235H74.814V39.4801H81.2532V0.628235ZM93.5792 0.628235H87.14V39.4801H93.5792V0.628235ZM105.9 13.707H99.4606V39.4693H105.9V13.707Z" fill="#0A112F"/>
<path d="M136 25.9302C136 22.5129 134.668 19.296 132.263 16.8427C129.842 14.3949 126.647 13.0355 123.246 13.0355H123.078C119.552 13.0788 116.216 14.4761 113.725 16.9835C111.234 19.491 109.831 22.8054 109.793 26.3472C109.75 29.9595 111.137 33.3767 113.698 35.9654C116.26 38.5541 119.65 39.9838 123.262 39.9838H123.278C128.012 39.9838 132.447 37.4493 134.873 33.3767L135.182 32.8568L129.864 30.2411L129.599 30.6743C128.255 32.8731 125.948 34.1728 123.387 34.1728C120.11 34.1728 117.283 31.9903 116.411 28.8817H136V25.9302ZM122.991 18.8844C125.932 18.8844 128.564 20.8178 129.49 23.5582H116.509C117.419 20.8178 120.051 18.8844 122.991 18.8844Z" fill="#0A112F"/>
</g>
<defs>
<clipPath id="clip0_810_1804">
<rect width="135.391" height="40" fill="white" transform="translate(0.608643)"/>
</clipPath>
</defs>
</svg>
