<svg width="63" height="16" viewBox="0 0 63 16" fill="none" xmlns="http://www.w3.org/2000/svg">
<path d="M0 15.2L4.4 0.32H6L1.6 15.2H0ZM7.04 12V0.799999H9.92L12.88 9.6H13.2L16.16 0.799999H19.04V12H17.36V3.44H17.04L14.16 12H11.92L9.04 3.44H8.72V12H7.04ZM29.9743 10.544C28.9396 11.6213 27.6703 12.16 26.1663 12.16C24.6623 12.16 23.3929 11.6213 22.3583 10.544C21.3236 9.46667 20.8063 8.08533 20.8063 6.4C20.8063 4.71467 21.3236 3.33333 22.3583 2.256C23.3929 1.17867 24.6623 0.639999 26.1663 0.639999C27.6703 0.639999 28.9396 1.17867 29.9743 2.256C31.0089 3.33333 31.5263 4.71467 31.5263 6.4C31.5263 8.08533 31.0089 9.46667 29.9743 10.544ZM28.8063 3.376C28.1129 2.61867 27.2329 2.24 26.1663 2.24C25.0996 2.24 24.2196 2.61867 23.5263 3.376C22.8329 4.13333 22.4863 5.14133 22.4863 6.4C22.4863 7.65867 22.8329 8.66667 23.5263 9.424C24.2196 10.1813 25.0996 10.56 26.1663 10.56C27.2329 10.56 28.1129 10.1813 28.8063 9.424C29.4996 8.66667 29.8463 7.65867 29.8463 6.4C29.8463 5.14133 29.4996 4.13333 28.8063 3.376ZM33.2825 12V0.799999H35.7625L40.3225 9.52H40.6425V0.799999H42.3225V12H39.8425L35.2825 3.28H34.9625V12H33.2825ZM47.2 12V2.4H43.68V0.799999H52.4V2.4H48.88V12H47.2ZM53.7594 12V0.799999H55.4394V5.52H61.1194V0.799999H62.7994V12H61.1194V7.12H55.4394V12H53.7594Z" fill="#9096A2"/>
</svg>
