<svg width="103" height="28" viewBox="0 0 103 28" fill="none" xmlns="http://www.w3.org/2000/svg">
<rect width="103" height="28" rx="14" fill="#FEF6EB"/>
<circle cx="15" cy="14" r="3" fill="#FAA745"/>
<path d="M27.05 19H28.87V15.78H31.46C33.294 15.78 34.54 14.506 34.54 12.49C34.54 10.474 33.294 9.2 31.46 9.2H27.05V19ZM28.87 14.03V10.95H31.39C32.174 10.95 32.72 11.496 32.72 12.49C32.72 13.484 32.174 14.03 31.39 14.03H28.87ZM36.4355 19H43.0155V17.32H38.2555V14.94H42.7355V13.26H38.2555V10.88H43.0155V9.2H36.4355V19ZM45.11 19H46.93V12.21H47.21L50.78 19H53.23V9.2H51.41V15.99H51.13L47.56 9.2H45.11V19ZM55.6166 19H59.1866C61.8326 19 63.9466 16.9 63.9466 14.1C63.9466 11.3 61.8326 9.2 59.1866 9.2H55.6166V19ZM57.4366 17.25V10.95H59.1866C60.8666 10.95 62.1266 12.196 62.1266 14.1C62.1266 16.004 60.8666 17.25 59.1866 17.25H57.4366ZM65.9044 19H67.7244V9.2H65.9044V19ZM70.1082 19H71.9282V12.21H72.2082L75.7782 19H78.2282V9.2H76.4082V15.99H76.1282L72.5582 9.2H70.1082V19ZM88.0348 19H89.4348V13.82H85.1648V15.22H87.6148V15.29C87.6148 15.92 86.7748 17.39 84.9548 17.39C83.2748 17.39 82.0148 16.116 82.0148 14.1C82.0148 12.084 83.2748 10.81 84.9548 10.81C86.2708 10.81 87.0548 11.65 87.4748 12.56H89.3648C89.0288 11.02 87.6008 9.06 84.9548 9.06C82.3088 9.06 80.1948 11.146 80.1948 14.1C80.1948 17.054 82.3088 19.14 84.9548 19.14C85.9488 19.14 86.6348 18.832 87.1248 18.51C87.4048 18.328 87.6428 18.118 87.8248 17.88H87.8948L88.0348 19Z" fill="#FAA745"/>
</svg>
