<svg width="88" height="88" viewBox="0 0 88 88" fill="none" xmlns="http://www.w3.org/2000/svg">
<circle cx="44" cy="44" r="44" fill="#3981F7"/>
<path d="M63.56 33.56C63.7695 33.3502 63.9122 33.0831 63.9699 32.7923C64.0277 32.5015 63.998 32.2001 63.8846 31.9262C63.7712 31.6522 63.5791 31.4181 63.3327 31.2532C63.0862 31.0884 62.7965 31.0003 62.5 31H57V25.5C56.9997 25.2035 56.9116 24.9138 56.7468 24.6674C56.5819 24.4209 56.3478 24.2289 56.0738 24.1154C55.7999 24.002 55.4985 23.9723 55.2077 24.0301C54.9169 24.0879 54.6498 24.2305 54.44 24.44L49.44 29.44C49.1586 29.7211 49.0004 30.1023 49 30.5V36.172L45.036 40.136C44.4434 39.9783 43.8224 39.9588 43.2211 40.079C42.6197 40.1992 42.0539 40.4558 41.5674 40.8291C41.0809 41.2024 40.6865 41.6824 40.4148 42.2322C40.143 42.7819 40.0011 43.3868 40 44C40.0003 44.5693 40.122 45.1319 40.3571 45.6503C40.5923 46.1688 40.9353 46.631 41.3634 47.0063C41.7915 47.3815 42.2948 47.661 42.8395 47.8262C43.3843 47.9913 43.9581 48.0383 44.5224 47.9639C45.0868 47.8896 45.6288 47.6956 46.1122 47.395C46.5957 47.0944 47.0093 46.6941 47.3257 46.2208C47.642 45.7475 47.8536 45.2122 47.9464 44.6505C48.0393 44.0889 48.0112 43.5139 47.864 42.964L51.828 39H57.5C57.8977 38.9997 58.279 38.8414 58.56 38.56L63.56 33.56ZM44 24C46.3354 23.997 48.6532 24.4038 50.848 25.202L48.024 28.026C47.9 28.15 47.784 28.286 47.682 28.426C44.294 27.6259 40.7374 27.9525 37.5518 29.3564C34.3662 30.7604 31.7254 33.165 30.03 36.2055C28.3346 39.246 27.6772 42.7565 28.1573 46.2045C28.6375 49.6524 30.2291 52.8497 32.6907 55.3113C35.1523 57.7729 38.3496 59.3645 41.7975 59.8447C45.2455 60.3249 48.756 59.6674 51.7965 57.972C54.837 56.2766 57.2416 53.6358 58.6456 50.4502C60.0495 47.2646 60.3762 43.708 59.576 40.32C59.716 40.216 59.85 40.1 59.976 39.976L62.796 37.152C63.5948 39.3467 64.0023 41.6645 64 44C64 55.046 55.046 64 44 64C32.954 64 24 55.046 24 44C24 32.954 32.954 24 44 24ZM44 32C45.036 32 46.04 32.132 47 32.38V35.344L46.172 36.172C46.1388 36.2048 46.1061 36.2381 46.074 36.272C44.8886 35.9559 43.6464 35.9163 42.4432 36.1563C41.24 36.3962 40.1081 36.9094 39.1346 37.6561C38.1612 38.4029 37.3723 39.3633 36.8288 40.4632C36.2853 41.5631 36.0018 42.7732 36 44C36.0008 45.1384 36.2446 46.2636 36.715 47.3003C37.1855 48.3369 37.8717 49.2613 38.728 50.0115C39.5843 50.7617 40.5908 51.3205 41.6803 51.6506C42.7698 51.9807 43.9172 52.0745 45.0459 51.9257C46.1745 51.7769 47.2584 51.3888 48.2251 50.7876C49.1918 50.1863 50.0191 49.3857 50.6516 48.4392C51.2841 47.4926 51.7073 46.422 51.8929 45.2988C52.0786 44.1756 52.0223 43.0257 51.728 41.926L51.828 41.828L52.656 41H55.622C56.2476 43.4231 56.1001 45.9811 55.2 48.3161C54.2999 50.6512 52.6923 52.6464 50.6021 54.0226C48.512 55.3988 46.0439 56.0871 43.5432 55.9912C41.0425 55.8953 38.6344 55.02 36.6558 53.4878C34.6772 51.9556 33.2271 49.8431 32.5085 47.446C31.7898 45.0489 31.8386 42.487 32.648 40.119C33.4573 37.751 34.9868 35.6952 37.0223 34.2394C39.0578 32.7837 41.4975 32.0007 44 32Z" fill="white"/>
</svg>
