<svg width="48" height="48" viewBox="0 0 48 48" fill="none" xmlns="http://www.w3.org/2000/svg">
<circle cx="24" cy="24" r="23.5" stroke="#E4E4E7"/>
<path d="M33.7024 18.1141C33.0066 18.4225 32.2591 18.6308 31.4733 18.725C32.2841 18.2398 32.8907 17.4762 33.1799 16.5766C32.4181 17.0291 31.5844 17.3476 30.7149 17.5183C30.1302 16.894 29.3558 16.4803 28.5119 16.3412C27.6679 16.2022 26.8017 16.3456 26.0476 16.7494C25.2936 17.1531 24.6939 17.7945 24.3417 18.5739C23.9895 19.3534 23.9045 20.2273 24.0999 21.06C22.5563 20.9825 21.0463 20.5813 19.6678 19.8824C18.2893 19.1835 17.0731 18.2026 16.0983 17.0033C15.7649 17.5783 15.5733 18.245 15.5733 18.955C15.5729 19.5941 15.7303 20.2235 16.0315 20.7873C16.3327 21.351 16.7684 21.8317 17.2999 22.1866C16.6835 22.167 16.0807 22.0005 15.5416 21.7008V21.7508C15.5415 22.6473 15.8516 23.5161 16.4192 24.21C16.9869 24.9038 17.7771 25.3799 18.6558 25.5575C18.0839 25.7122 17.4844 25.735 16.9024 25.6241C17.1503 26.3955 17.6333 27.07 18.2836 27.5533C18.9339 28.0365 19.719 28.3043 20.5291 28.3191C19.154 29.3987 17.4557 29.9842 15.7074 29.9816C15.3977 29.9817 15.0883 29.9636 14.7808 29.9275C16.5553 31.0685 18.621 31.674 20.7308 31.6716C27.8724 31.6716 31.7766 25.7566 31.7766 20.6266C31.7766 20.46 31.7724 20.2916 31.7649 20.125C32.5243 19.5758 33.1799 18.8957 33.7008 18.1166L33.7024 18.1141V18.1141Z" fill="#9096A2"/>
</svg>
