<svg width="235" height="64" viewBox="0 0 235 64" fill="none" xmlns="http://www.w3.org/2000/svg">
<g clip-path="url(#clip0_107_5245)">
<path fill-rule="evenodd" clip-rule="evenodd" d="M29.2109 16.268C29.3219 16.1062 29.5085 16 29.7201 16C30.0605 16 30.3504 16.2883 30.3504 16.6275C30.3504 16.6826 30.3428 16.7356 30.3285 16.7858C30.3301 16.7825 30.3316 16.7791 30.3331 16.7757C30.334 16.7735 30.3363 16.7671 30.3397 16.7566C27.9749 25.3252 39.3872 32.2395 56.0335 32.2395C72.6513 32.2395 84.0512 25.3489 81.7354 16.8007L81.7367 16.803C81.7144 16.7394 81.7024 16.6708 81.7024 16.5993C81.7024 16.2684 81.9604 16 82.2962 16C82.5367 16 82.7446 16.1376 82.8433 16.3372C84.8205 19.0679 85.9558 22.1365 85.9988 25.3798C86.1432 36.7785 72.715 48 55.9954 48C39.2758 48 25.8519 36.7785 26.0012 25.3798C26.0461 22.1091 27.2016 19.016 29.2109 16.268Z" fill="#0A112F"/>
<path fill-rule="evenodd" clip-rule="evenodd" d="M95.9539 18.1774C96.8155 18.5067 97.7512 18.6871 98.7291 18.6871C99.5878 18.6871 100.414 18.548 101.186 18.2912L103.844 40.2563C103.881 40.5912 103.881 40.8144 104.03 40.8144C104.18 40.8144 104.18 40.5912 104.254 40.2563L107.465 27.1963C107.689 26.3033 108.212 25.5219 109.817 25.5219H112.393C113.999 25.5219 114.521 26.3033 114.745 27.1963L117.956 40.2563C118.031 40.5912 118.031 40.8144 118.18 40.8144C118.329 40.8144 118.329 40.5912 118.367 40.2563L121.047 18.1064C121.957 18.4807 122.955 18.6871 124.001 18.6871C124.776 18.6871 125.524 18.5739 126.23 18.3631L122.772 42.3028C122.436 44.6469 121.353 45.3166 119.412 45.3166H117.396C115.716 45.3166 114.82 44.4981 114.297 42.34L111.348 30.0613C111.273 29.7264 111.273 29.652 111.124 29.652C110.975 29.652 110.937 29.7264 110.863 30.0613L107.913 42.34C107.391 44.4981 106.495 45.3166 104.814 45.3166H102.798C100.857 45.3166 99.7745 44.6469 99.4385 42.3028L95.9539 18.1774Z" fill="#0A112F"/>
<path fill-rule="evenodd" clip-rule="evenodd" d="M146.815 35.3076C146.815 35.9029 146.591 36.2378 146.068 36.2378H133.897V36.3494C133.897 38.5075 134.793 41.0748 138.377 41.0748C141.103 41.0748 143.679 40.8516 145.247 40.7028H145.359C145.732 40.7028 146.031 40.8888 146.031 41.2609V43.7166C146.031 44.3119 145.919 44.5724 145.247 44.684C142.82 45.1305 141.364 45.3166 138.004 45.3166C134.271 45.3166 128.969 43.3073 128.969 35.9773V33.2239C128.969 27.4195 132.217 23.7731 137.929 23.7731C143.679 23.7731 146.815 27.6799 146.815 33.2239V35.3076ZM141.849 32.7402V32.5914C141.849 29.6892 140.244 28.0148 137.929 28.0148C135.615 28.0148 133.935 29.6519 133.935 32.5914V32.7402H141.849Z" fill="#0A112F"/>
<path fill-rule="evenodd" clip-rule="evenodd" d="M151.033 17.7812C151.749 17.998 152.507 18.1146 153.294 18.1146C154.231 18.1146 155.13 17.9488 155.961 17.645V24.0336C157.343 23.8475 158.65 23.7731 159.546 23.7731C165.556 23.7731 168.468 27.3079 168.468 33.1123V35.9774C168.468 41.7818 165.556 45.3166 159.546 45.3166C157.156 45.3166 154.356 44.9445 152.041 44.3492C151.183 44.1259 151.033 43.9027 151.033 43.3446V17.7812ZM163.54 35.9774V33.1123C163.54 30.0613 162.756 27.7916 159.546 27.7916C158.65 27.7916 157.007 27.9032 155.961 28.052V41.0377C156.671 41.1865 158.202 41.2981 159.546 41.2981C162.756 41.2981 163.54 39.0284 163.54 35.9774Z" fill="#0A112F"/>
<path fill-rule="evenodd" clip-rule="evenodd" d="M189.637 25.1607V36.3122C189.637 44.4236 183.327 45.3166 181.124 45.3166H180.9C178.698 45.3166 172.388 44.4236 172.388 36.3122V25.0632C173.238 25.3819 174.158 25.5562 175.12 25.5562C175.883 25.5562 176.62 25.4464 177.316 25.2417V36.3122C177.316 40.1819 178.735 41.0749 180.9 41.0749H181.124C183.29 41.0749 184.709 40.1819 184.709 36.3122V25.155C185.485 25.4152 186.317 25.5562 187.181 25.5562C188.039 25.5562 188.865 25.4173 189.637 25.1607Z" fill="#0A112F"/>
<path fill-rule="evenodd" clip-rule="evenodd" d="M194.49 17.7191C195.261 17.9757 196.087 18.1146 196.945 18.1146C197.81 18.1146 198.641 17.9736 199.418 17.7134V44.2376C199.418 44.6468 199.119 45.0189 198.708 45.0189H195.236C194.826 45.0189 194.49 44.6468 194.49 44.2376V17.7191Z" fill="#0A112F"/>
<path fill-rule="evenodd" clip-rule="evenodd" d="M204.645 17.6554C205.468 17.9526 206.357 18.1146 207.284 18.1146C208.08 18.1146 208.849 17.9948 209.573 17.7724V44.2375C209.573 44.6468 209.274 45.0189 208.863 45.0189H205.391C204.981 45.0189 204.645 44.6468 204.645 44.2375V17.6554Z" fill="#0A112F"/>
</g>
<defs>
<clipPath id="clip0_107_5245">
<rect width="184" height="32" fill="white" transform="translate(26 16)"/>
</clipPath>
</defs>
</svg>
