<svg width="219" height="32" viewBox="0 0 219 32" fill="none" xmlns="http://www.w3.org/2000/svg">
<g clip-path="url(#clip0_810_1797)">
<path d="M19.8177 8.44939V31.9972H0.31543L19.8177 8.44939ZM19.8177 0.00189209C19.8177 5.38333 15.4585 9.74255 10.077 9.74255C4.69557 9.74255 0.31543 5.38333 0.31543 0.00189209H19.8177ZM23.0301 31.9981C23.0301 26.6166 27.3894 22.2574 32.7708 22.2574C38.1522 22.2574 42.5115 26.6166 42.5115 31.9981H23.0301ZM23.0301 23.5506V0.00189209H42.5318L23.0301 23.5506Z" fill="#0A112F"/>
</g>
<g clip-path="url(#clip1_810_1797)">
<path d="M161.644 27.6383C163.865 27.6918 166.005 26.8624 167.61 25.3107L170.553 28.4945C168.6 30.5011 165.898 31.9993 161.698 31.9993C154.474 31.9993 149.819 27.2102 149.819 20.7356C149.819 14.3145 154.715 9.47185 161.029 9.47185C168.199 9.47185 172.239 14.9298 171.891 22.4747H154.982C155.571 25.6317 157.791 27.6383 161.644 27.6383ZM166.781 18.8895C166.326 15.9732 164.587 13.8061 161.082 13.8061C157.818 13.8061 155.571 15.6522 154.982 18.8895H166.781ZM50.5317 27.3975L63.5613 14.1539H50.826V10.0069H69.5811V14.2609L56.5783 27.4778H69.7684V31.6248H50.5317V27.3975ZM84.3765 27.6383C86.5971 27.6918 88.7375 26.8624 90.3428 25.3107L93.2858 28.4945C91.3327 30.5011 88.6305 31.9993 84.43 31.9993C77.233 31.9993 72.5509 27.2102 72.5509 20.7356C72.5509 14.3145 77.447 9.47185 83.7611 9.47185C90.9314 9.47185 94.9713 14.9298 94.6235 22.4747H77.7145C78.3299 25.6317 80.5238 27.6383 84.3765 27.6383ZM89.5401 18.8895C89.0853 15.9732 87.3462 13.8061 83.8414 13.8061C80.5773 13.8061 78.3299 15.6522 77.7413 18.8895H89.5401ZM122.77 20.7623C122.77 13.8329 127.933 9.52536 133.632 9.52536C136.495 9.52536 139.224 10.7828 140.829 12.7627V0.000671387H145.431V31.5713H140.829V28.5747C139.17 30.6884 136.441 31.9993 133.578 31.9993C128.067 31.9993 122.77 27.6383 122.77 20.7623ZM141.097 20.7088C141.097 16.8562 138.18 13.6991 134.247 13.6991C130.395 13.6991 127.398 16.7759 127.398 20.7088C127.398 24.6418 130.395 27.7453 134.247 27.7453C138.18 27.7721 141.097 24.615 141.097 20.7088ZM174.888 26.9694L179.061 24.8023C180.185 26.8089 182.326 28.0129 184.626 27.9594C187.222 27.9594 188.586 26.6216 188.586 25.0966C188.586 23.3576 186.071 22.983 183.342 22.4211C179.65 21.6453 175.824 20.4413 175.824 15.9732C175.824 12.5486 179.088 9.39158 184.198 9.44509C188.238 9.44509 191.235 11.0504 192.92 13.6456L189.041 15.786C188.051 14.2609 186.339 13.3245 184.172 13.3245C181.683 13.3245 180.426 14.5285 180.426 15.9197C180.426 17.4715 182.433 17.8996 185.563 18.5952C189.121 19.3711 193.161 20.5483 193.161 25.0431C193.161 28.0396 190.566 32.0528 184.386 31.9993C179.891 31.9993 176.707 30.18 174.888 26.9694V26.9694ZM205.656 21.9663L202.017 25.9528V31.5713H197.415V0.000671387H202.017V20.6553L211.783 9.95343H217.374L208.92 19.2106L217.615 31.5713H212.398L205.656 21.9663ZM108.857 9.4986C103.372 9.4986 98.7973 13.057 98.7973 18.9163V31.5713H103.506V19.5316C103.506 15.9732 105.539 13.8596 109.018 13.8596C112.496 13.8596 114.235 15.9732 114.235 19.5316V31.5713H118.917V18.943C118.917 13.057 114.342 9.4986 108.857 9.4986Z" fill="#0A112F"/>
<path d="M216.09 7.14418C216.732 6.50207 217.802 6.50207 218.444 7.14418C219.087 7.7863 219.087 8.85648 218.444 9.4986C217.802 10.1407 216.732 10.1407 216.09 9.4986C215.421 8.85648 215.421 7.81305 216.09 7.14418ZM218.15 9.23105C218.632 8.72271 218.605 7.92007 218.123 7.43848C217.615 6.9569 216.812 6.98365 216.331 7.46524C215.849 7.97358 215.849 8.74946 216.358 9.23105C216.866 9.73939 217.669 9.71263 218.15 9.23105ZM217.401 7.2512L217.909 7.75954C218.23 8.0806 218.23 8.45516 218.016 8.6692C217.856 8.85648 217.588 8.90999 217.374 8.80297L217.214 9.44509L216.866 9.09728L217.107 8.21437L217.24 8.34814C217.321 8.45516 217.508 8.48192 217.615 8.40165L217.642 8.3749C217.749 8.26788 217.722 8.0806 217.615 8.00033L217.588 7.97358L217.401 7.7863L216.465 8.72271L216.17 8.42841L217.401 7.2512V7.2512Z" fill="#0A112F"/>
</g>
<defs>
<clipPath id="clip0_810_1797">
<rect width="42.2164" height="32" fill="white" transform="translate(0.31543)"/>
</clipPath>
<clipPath id="clip1_810_1797">
<rect width="168.421" height="32" fill="white" transform="translate(50.5317)"/>
</clipPath>
</defs>
</svg>
